<svg width="56" height="56" viewBox="0 0 56 56" fill="none" xmlns="http://www.w3.org/2000/svg">
    <mask id="mask0_1440_3183" style="mask-type:alpha" maskUnits="userSpaceOnUse" x="7" y="4" width="41" height="48">
        <path d="M11.1 4L31.3279 4C32.7216 4 34.0628 4.51937 35.0771 5.45195L46.2825 15.7543C47.3786 16.762 48 18.1663 48 19.6357L48 48C48 50.2091 46.1644 52 43.9 52L11.1 52C8.83564 52 7 50.2091 7 48L7 8C7 5.79086 8.83563 4 11.1 4Z"
              fill="#FFA500"/>
    </mask>
    <g mask="url(#mask0_1440_3183)">
        <g filter="url(#filter0_d_1440_3183)">
            <path d="M11.1 4.00195L31.3279 4.00195C32.7216 4.00195 34.0628 4.52133 35.0771 5.4539L46.2825 15.7563C47.3786 16.764 48 18.1683 48 19.6376L48 48.0019C48 50.2111 46.1644 52.0019 43.9 52.0019L11.1 52.0019C8.83564 52.0019 7 50.2111 7 48.0019L7 8.00195C7 5.79281 8.83563 4.00195 11.1 4.00195Z"
                  fill="url(#paint0_linear_1440_3183)"/>
            <path d="M11.1 4.00195L31.3279 4.00195C32.7216 4.00195 34.0628 4.52133 35.0771 5.4539L46.2825 15.7563C47.3786 16.764 48 18.1683 48 19.6376L48 48.0019C48 50.2111 46.1644 52.0019 43.9 52.0019L11.1 52.0019C8.83564 52.0019 7 50.2111 7 48.0019L7 8.00195C7 5.79281 8.83563 4.00195 11.1 4.00195Z"
                  stroke="#FFFFFF" stroke-width="2"/>
        </g>
        <g filter="url(#filter1_d_1440_3183)">
            <path fill-rule="evenodd" clip-rule="evenodd"
                  d="M39.8 16L47.9999 16L47.9999 4.00001L35.7 4.00001L35.7 12C35.7 14.2091 37.5356 16 39.8 16Z"
                  fill="#05040f"/>
            <path fill-rule="evenodd" clip-rule="evenodd"
                  d="M39.8 16L47.9999 16L47.9999 4.00001L35.7 4.00001L35.7 12C35.7 14.2091 37.5356 16 39.8 16Z"
                  stroke="#fffefd"/>
        </g>
    </g>
    
</svg>
